<svg width="113" height="14" viewBox="0 0 113 14" fill="none" xmlns="http://www.w3.org/2000/svg">
<path d="M40.4114 12.5254H42.6679V6.0359L47.7005 12.5254H49.6463V2.3169H47.3886V8.60246L42.5192 2.3169H40.4102L40.4114 12.5254ZM35.9815 12.5254H38.268V2.3169H35.9815V12.5254ZM28.7012 7.46528V4.34485H30.4683C31.6104 4.34485 32.3241 4.88455 32.3241 5.88981V5.91924C32.3241 6.79148 31.6582 7.46528 30.5127 7.46528H28.7012ZM26.4169 12.5254H28.7034V9.46271H30.4405C32.7715 9.46271 34.6418 8.2383 34.6418 5.87563V5.84619C34.6418 3.76154 33.1422 2.3169 30.6625 2.3169H26.4169V12.5254ZM21.0669 12.6715C23.3079 12.6715 24.8818 11.5343 24.8818 9.50959V9.48015C24.8818 7.70079 23.6942 6.95721 21.5863 6.41751C19.7893 5.96504 19.3442 5.74698 19.3442 5.07535V5.04701C19.3442 4.55092 19.8048 4.15732 20.6762 4.15732C21.5475 4.15732 22.4521 4.53675 23.3778 5.16367L24.5655 3.47153C23.5121 2.64072 22.2201 2.17407 20.7061 2.17407C18.5828 2.17407 17.0688 3.39848 17.0688 5.25089V5.28033C17.071 7.30501 18.4252 7.87415 20.5152 8.39531C22.2523 8.83143 22.6086 9.12472 22.6086 9.69276V9.7222C22.6086 10.3208 22.0447 10.6849 21.109 10.6849C19.9214 10.6849 18.9413 10.2041 18.0011 9.44526L16.6503 11.0349C17.867 12.0948 19.4384 12.6774 21.0646 12.6715H21.0669Z" fill="#FABC05"/>
<path d="M104.576 7.52295V3.37982H107.783C109.46 3.37982 110.441 4.14303 110.441 5.39469V5.42304C110.441 6.7314 109.331 7.52404 107.769 7.52404L104.576 7.52295ZM103.403 12.5241H104.576V8.55873H107.545L110.559 12.5252H112.002L108.807 8.35485C110.441 8.0681 111.628 7.07157 111.628 5.37943V5.35108C111.635 4.9803 111.569 4.61166 111.431 4.26628C111.294 3.92091 111.088 3.60558 110.826 3.33839C110.173 2.69621 109.148 2.31678 107.872 2.31678H103.403V12.5241ZM93.9104 12.5241H101.497V11.4742H95.0837V7.90237H100.754V6.85242H95.0837V3.36347H101.423V2.31678H93.9104V12.5241ZM84.418 12.5241H92.0046V11.4742H85.5912V7.90237H91.262V6.85242H85.5912V3.36347H91.9302V2.31678H84.418V12.5241ZM75.3118 7.52295V3.37982H78.5185C80.1957 3.37982 81.1758 4.14303 81.1758 5.39251V5.42086C81.1758 6.72921 80.0658 7.52186 78.503 7.52186L75.3118 7.52295ZM74.1386 12.5241H75.3118V8.55873H78.281L81.2945 12.5252H82.7375L79.543 8.35485C81.1758 8.0681 82.359 7.07157 82.359 5.37943V5.35108C82.3668 4.9803 82.3 4.61166 82.1625 4.26628C82.025 3.92091 81.8194 3.60558 81.5576 3.33839C80.9038 2.69621 79.8793 2.31678 78.6029 2.31678H74.1386V12.5241ZM64.8693 8.79206L67.2446 3.58589L69.6044 8.79206H64.8693ZM61.9734 12.5252H63.1766L64.4086 9.82784H70.0695L71.2904 12.5252H72.5525L67.8085 2.24482H66.7085L61.9734 12.5252ZM57.1128 12.7008C58.9998 12.7008 60.1863 11.9855 61.2708 10.9072L60.4938 10.1637C59.4948 11.0969 58.5636 11.6356 57.1384 11.6356C54.8518 11.6356 53.1147 9.78205 53.1147 7.42155V7.39212C53.1147 5.04471 54.8374 3.20646 57.1384 3.20646C58.5491 3.20646 59.5292 3.78977 60.405 4.60641L61.2064 3.76143C60.1675 2.79869 59.0386 2.14233 57.1539 2.14233C54.0948 2.14233 51.8982 4.53445 51.8982 7.42155V7.45099C51.9026 10.3817 54.1148 12.7008 57.1128 12.7008Z" fill="white"/>
<path fill-rule="evenodd" clip-rule="evenodd" d="M2.10894 0H8.56672V4.22599H4.27892V8.38766H0V2.07157C0.00175628 1.52268 0.224511 0.996774 0.619633 0.608653C1.01476 0.220533 1.55015 0.00172515 2.10894 0" fill="#F8F8F8"/>
<path fill-rule="evenodd" clip-rule="evenodd" d="M4.69702 13.3148H2.10858C1.57915 13.3144 1.06936 13.1178 0.681168 12.7642V9.37007L4.69702 13.3148ZM12.782 12.8427C12.4071 13.1467 11.9363 13.3136 11.4501 13.3148H9.14799L4.98451 9.17163V5.18332L12.782 12.8427ZM13.559 5.22912V9.25449L9.24677 4.9838V0.996582L13.559 5.22912Z" fill="#FABC05"/>
<path d="M39.8909 12.2605H42.1474V5.76992L47.1811 12.2605H49.1258V2.052H46.8692V8.33757L41.9998 2.052H39.8909V12.2605ZM35.461 12.2605H37.7475V2.052H35.461V12.2605ZM28.1807 7.19603V4.07887H29.9478C31.091 4.07887 31.8036 4.62402 31.8036 5.62491V5.65326C31.8036 6.52549 31.1377 7.1993 29.9922 7.1993L28.1807 7.19603ZM25.8942 12.2572H28.1807V9.19781H29.9178C32.2487 9.19781 34.119 7.97232 34.119 5.60964V5.5813C34.119 3.49556 32.6195 2.052 30.1409 2.052H25.8942V12.2572ZM20.5441 12.4022C22.7863 12.4022 24.3591 11.265 24.3591 9.24033V9.2109C24.3591 7.43153 23.1714 6.68795 21.0636 6.14825C19.2677 5.69687 18.8215 5.47772 18.8215 4.80718V4.77775C18.8215 4.28166 19.2821 3.88806 20.1534 3.88806C21.0248 3.88806 21.9294 4.26749 22.8562 4.89441L24.0439 3.20227C22.95 2.34159 21.5847 1.88273 20.1834 1.90481C18.06 1.90481 16.546 3.13031 16.546 4.98163V5.01543C16.546 7.04229 17.8969 7.61143 19.9869 8.13586C21.724 8.57198 22.0803 8.86527 22.0803 9.43441V9.46384C22.0803 10.0613 21.5165 10.4255 20.5808 10.4255C19.3931 10.4255 18.413 9.94466 17.4729 9.18582L16.1342 10.7722C17.3502 11.8299 18.9199 12.4113 20.5441 12.4055V12.4022Z" fill="#F8F8F8"/>
<path d="M104.056 7.25819V3.11506H107.262C108.941 3.11506 109.92 3.87827 109.92 5.12775V5.15719C109.92 6.46554 108.81 7.2571 107.248 7.2571L104.056 7.25819ZM102.882 12.2605H104.056V8.29288H107.025L110.038 12.2605H111.481L108.287 8.089C109.92 7.79789 111.107 6.80572 111.107 5.11466V5.08523C111.115 4.71445 111.048 4.34581 110.911 4.00043C110.773 3.65506 110.568 3.33973 110.306 3.07254C109.653 2.43035 108.629 2.05202 107.351 2.05202H102.882V12.2605ZM93.3899 12.2605H100.977V11.2105H94.5687V7.63761H100.23V6.58766H94.5687V3.0987H100.908V2.05202H93.3899V12.2605ZM83.8975 12.2605H91.4841V11.2105H85.0707V7.63761H90.7415V6.58766H85.0707V3.0987H91.4097V2.05202H83.8975V12.2605ZM74.7958 7.25819V3.11506H78.0025C79.6807 3.11506 80.6597 3.87827 80.6597 5.12775V5.15719C80.6597 6.46554 79.5497 7.2571 77.988 7.2571L74.7958 7.25819ZM73.6225 12.2605H74.7958V8.29288H77.7649L80.7785 12.2605H82.2214L79.0225 8.089C80.6553 7.79789 81.8429 6.80572 81.8429 5.11466V5.08523C81.8507 4.71445 81.784 4.34581 81.6464 4.00043C81.5089 3.65506 81.3034 3.33973 81.0415 3.07254C80.3889 2.43035 79.3644 2.05202 78.0868 2.05202H73.6181L73.6225 12.2605ZM64.3488 8.52621L66.7241 3.32004L69.085 8.52621H64.3488ZM61.454 12.2605H62.6561L63.8881 9.56199H69.549L70.7699 12.2605H72.032L67.2957 1.97897H66.1969L61.454 12.2605ZM56.5934 12.4349C58.4804 12.4349 59.6658 11.7208 60.7503 10.6414L59.9733 9.8978C58.9743 10.8311 58.0442 11.3708 56.6178 11.3708C54.3324 11.3708 52.5953 9.51729 52.5953 7.1557V7.12626C52.5998 4.77885 54.3213 2.94388 56.6223 2.94388C58.0331 2.94388 59.0132 3.52719 59.8889 4.34382L60.6903 3.49775C59.6514 2.53502 58.5237 1.87866 56.6378 1.87866C53.5788 1.87866 51.3821 4.27077 51.3821 7.15788V7.18732C51.3821 10.1159 53.5943 12.4349 56.5934 12.4349Z" fill="#FABC05"/>
</svg>
