<svg width="24" height="24" viewBox="0 0 24 24" fill="none" xmlns="http://www.w3.org/2000/svg">
<path d="M21.0223 1.35324C18.1345 3.82881 15.4851 6.45512 13.2475 9.52842C12.2605 10.8843 11.4846 12.3905 10.7676 13.8971C10.4305 14.6062 10.2291 15.3439 10.0397 16.0816C8.66233 14.8141 7.32171 13.5106 5.80971 12.3838C4.73158 11.5808 1.11283 14.099 2.37658 15.0413C4.64158 16.7283 6.52783 18.8285 8.72908 20.5905C9.65083 21.3267 11.6935 19.7288 12.172 19.0572C13.7473 16.8482 13.9626 14.1458 15.1112 11.7352C16.8647 8.04894 19.9738 5.02279 23.0425 2.39055C25.3337 0.427315 22.5655 0.0304363 21.0231 1.35176" fill="#FBBC05"/>
<path d="M21.0223 1.35324C18.1345 3.82881 15.4851 6.45512 13.2475 9.52842C12.2605 10.8843 11.4846 12.3905 10.7676 13.8971C10.4305 14.6062 10.2291 15.3439 10.0397 16.0816C8.66233 14.8141 7.32171 13.5106 5.80971 12.3838C4.73158 11.5808 1.11283 14.099 2.37658 15.0413C4.64158 16.7283 6.52783 18.8285 8.72908 20.5905C9.65083 21.3267 11.6935 19.7288 12.172 19.0572C13.7473 16.8482 13.9626 14.1458 15.1112 11.7352C16.8647 8.04894 19.9738 5.02279 23.0425 2.39055C25.3337 0.427315 22.5655 0.0304363 21.0231 1.35176" fill="url(#paint0_linear)"/>
<defs>
<linearGradient id="paint0_linear" x1="12.4742" y1="0.58081" x2="20.6525" y2="15.9319" gradientUnits="userSpaceOnUse">
<stop offset="0.133333" stop-color="#FBBC05"/>
<stop offset="0.513542" stop-color="#FFEBB0"/>
<stop offset="0.878125" stop-color="#FBBC05"/>
</linearGradient>
</defs>
</svg>
