<svg width="76" height="76" viewBox="0 0 76 76" fill="none" xmlns="http://www.w3.org/2000/svg">
<path d="M25.0407 21.7313C16.4523 21.7313 9.48987 28.6937 9.48987 37.2822C9.48987 45.8706 16.4523 52.833 25.0407 52.833C33.6292 52.833 40.5916 45.8706 40.5916 37.2822C40.5916 28.6937 33.6292 21.7313 25.0407 21.7313ZM36.5495 31.4506H30.945C30.409 28.7648 29.5719 26.594 28.7171 24.9193C32.1418 25.9412 34.9531 28.316 36.5495 31.4506ZM28.9284 37.2822C28.9284 38.4391 28.8418 39.5019 28.7227 40.5219H21.3592C21.2397 39.5019 21.1529 38.4389 21.1529 37.2822C21.1529 36.1248 21.2382 35.0621 21.3566 34.0424H28.7253C28.8431 35.0621 28.9284 36.1249 28.9284 37.2822ZM24.6636 24.361C24.7914 24.3573 24.9116 24.3231 25.0407 24.3231C25.1711 24.3231 25.2918 24.358 25.4216 24.3617C26.3941 25.8538 27.5768 28.2141 28.293 31.4506H21.7888C22.5084 28.2029 23.6954 25.8437 24.6636 24.361ZM21.3644 24.9193C20.5127 26.5905 19.6749 28.7637 19.1384 31.4506H13.532C15.1285 28.316 17.9398 25.9419 21.3644 24.9193ZM12.0817 37.2822C12.0817 36.157 12.2709 35.084 12.5417 34.0424H18.7447C18.6365 35.0688 18.5612 36.1363 18.5612 37.2822C18.5612 38.4287 18.6385 39.4949 18.7485 40.5219H12.5417C12.2709 39.4804 12.0817 38.4074 12.0817 37.2822ZM13.532 43.1138H19.1447C19.6864 45.8055 20.5247 47.9949 21.3607 49.644C17.9379 48.6214 15.1279 46.2473 13.532 43.1138ZM25.4172 50.2033C25.2894 50.2072 25.1698 50.2412 25.0407 50.2412C24.9116 50.2412 24.7921 50.2071 24.6636 50.2033C23.7348 48.7746 22.5249 46.4089 21.7922 43.1138H28.2896C27.5579 46.4068 26.3493 48.7714 25.4172 50.2033ZM28.7221 49.644C29.5592 47.9933 30.397 45.8057 30.9374 43.1138H36.5495C34.9536 46.2469 32.1441 48.6209 28.7221 49.644ZM31.3336 40.5219C31.4431 39.4949 31.5203 38.4287 31.5203 37.2822C31.5203 36.1363 31.4456 35.0688 31.3374 34.0424H37.5397C37.8106 35.084 37.9998 36.1572 37.9998 37.2822C37.9998 38.4074 37.8106 39.4804 37.5397 40.5219H31.3336Z" fill="#1D1D1D"/>
<path d="M25.0407 21.7313C16.4523 21.7313 9.48987 28.6937 9.48987 37.2822C9.48987 45.8706 16.4523 52.833 25.0407 52.833C33.6292 52.833 40.5916 45.8706 40.5916 37.2822C40.5916 28.6937 33.6292 21.7313 25.0407 21.7313ZM36.5495 31.4506H30.945C30.409 28.7648 29.5719 26.594 28.7171 24.9193C32.1418 25.9412 34.9531 28.316 36.5495 31.4506ZM28.9284 37.2822C28.9284 38.4391 28.8418 39.5019 28.7227 40.5219H21.3592C21.2397 39.5019 21.1529 38.4389 21.1529 37.2822C21.1529 36.1248 21.2382 35.0621 21.3566 34.0424H28.7253C28.8431 35.0621 28.9284 36.1249 28.9284 37.2822ZM24.6636 24.361C24.7914 24.3573 24.9116 24.3231 25.0407 24.3231C25.1711 24.3231 25.2918 24.358 25.4216 24.3617C26.3941 25.8538 27.5768 28.2141 28.293 31.4506H21.7888C22.5084 28.2029 23.6954 25.8437 24.6636 24.361ZM21.3644 24.9193C20.5127 26.5905 19.6749 28.7637 19.1384 31.4506H13.532C15.1285 28.316 17.9398 25.9419 21.3644 24.9193ZM12.0817 37.2822C12.0817 36.157 12.2709 35.084 12.5417 34.0424H18.7447C18.6365 35.0688 18.5612 36.1363 18.5612 37.2822C18.5612 38.4287 18.6385 39.4949 18.7485 40.5219H12.5417C12.2709 39.4804 12.0817 38.4074 12.0817 37.2822ZM13.532 43.1138H19.1447C19.6864 45.8055 20.5247 47.9949 21.3607 49.644C17.9379 48.6214 15.1279 46.2473 13.532 43.1138ZM25.4172 50.2033C25.2894 50.2072 25.1698 50.2412 25.0407 50.2412C24.9116 50.2412 24.7921 50.2071 24.6636 50.2033C23.7348 48.7746 22.5249 46.4089 21.7922 43.1138H28.2896C27.5579 46.4068 26.3493 48.7714 25.4172 50.2033ZM28.7221 49.644C29.5592 47.9933 30.397 45.8057 30.9374 43.1138H36.5495C34.9536 46.2469 32.1441 48.6209 28.7221 49.644ZM31.3336 40.5219C31.4431 39.4949 31.5203 38.4287 31.5203 37.2822C31.5203 36.1363 31.4456 35.0688 31.3374 34.0424H37.5397C37.8106 35.084 37.9998 36.1572 37.9998 37.2822C37.9998 38.4074 37.8106 39.4804 37.5397 40.5219H31.3336Z" fill="url(#paint0_linear)"/>
<path d="M38 60.608H12.0819V63.1998H38V60.608Z" fill="#1D1D1D"/>
<path d="M38 60.608H12.0819V63.1998H38V60.608Z" fill="url(#paint1_linear)"/>
<path d="M56.0433 41.9392L54.7013 46.946L57.2047 47.6171L58.5468 42.6102L56.0433 41.9392Z" fill="#1D1D1D"/>
<path d="M56.0433 41.9392L54.7013 46.946L57.2047 47.6171L58.5468 42.6102L56.0433 41.9392Z" fill="url(#paint2_linear)"/>
<path d="M53.3594 51.9473L48.6642 69.4708L51.1676 70.1416L55.8628 52.618L53.3594 51.9473Z" fill="#1D1D1D"/>
<path d="M53.3594 51.9473L48.6642 69.4708L51.1676 70.1416L55.8628 52.618L53.3594 51.9473Z" fill="url(#paint3_linear)"/>
<path d="M70.4417 8.2277L40.4 0.177863C39.9507 0.0575058 39.4994 0 39.0553 0C36.7666 0.000161988 34.6723 1.52755 34.0515 3.84333L31.3421 13.9556H4.30629C2.87496 13.9556 1.71448 15.1159 1.71448 16.5474V68.3836C1.71448 69.8151 2.87496 70.9754 4.30629 70.9754H34.2419L52.3301 75.8221C52.7795 75.9425 53.2304 76 53.6748 76C55.9635 76 58.0579 74.4725 58.6786 72.1567L74.1073 14.5762C74.8484 11.811 73.207 8.96864 70.4417 8.2277ZM4.30629 68.3836V16.5474H43.1834C44.6128 16.5474 45.7753 17.7102 45.7753 19.1392V65.7918C45.7753 67.2209 44.6128 68.3836 43.1834 68.3836H4.30629ZM71.6041 13.9054L56.1754 71.4859C55.8717 72.6178 54.8435 73.4083 53.6746 73.4083C53.4495 73.4083 53.2228 73.3782 53.0007 73.3186L43.9629 70.8969C46.4527 70.5186 48.3669 68.3877 48.3669 65.792V45.2448L49.6944 45.6005L51.0365 40.5934L48.5326 39.9226L48.3669 40.5421V19.9454C49.1749 20.162 50.1076 20.412 51.0119 20.6543L54.077 30.6752L56.2227 31.2503L56.0196 21.996C57.4287 22.3738 58.8676 22.7592 59.8104 23.0119L61.4765 25.9499L62.9071 26.3331L62.6611 22.2424L64.9195 18.8227L63.4888 18.4394L60.5774 20.1508C59.634 19.8983 58.1957 19.5128 56.7859 19.135L61.5892 11.2225L59.4435 10.6475L51.7787 17.7934C50.2714 17.3896 48.6269 16.9487 47.736 16.7102C46.8629 15.0783 45.1626 13.9558 43.1833 13.9558H34.0246L36.5544 4.51445C36.8581 3.38264 37.8864 2.59213 39.0552 2.59197C39.2803 2.59197 39.507 2.6221 39.7291 2.68171L69.7709 10.7316C70.4398 10.9107 70.9984 11.3397 71.3446 11.9392C71.6909 12.5385 71.7831 13.2369 71.6041 13.9054Z" fill="#1D1D1D"/>
<path d="M70.4417 8.2277L40.4 0.177863C39.9507 0.0575058 39.4994 0 39.0553 0C36.7666 0.000161988 34.6723 1.52755 34.0515 3.84333L31.3421 13.9556H4.30629C2.87496 13.9556 1.71448 15.1159 1.71448 16.5474V68.3836C1.71448 69.8151 2.87496 70.9754 4.30629 70.9754H34.2419L52.3301 75.8221C52.7795 75.9425 53.2304 76 53.6748 76C55.9635 76 58.0579 74.4725 58.6786 72.1567L74.1073 14.5762C74.8484 11.811 73.207 8.96864 70.4417 8.2277ZM4.30629 68.3836V16.5474H43.1834C44.6128 16.5474 45.7753 17.7102 45.7753 19.1392V65.7918C45.7753 67.2209 44.6128 68.3836 43.1834 68.3836H4.30629ZM71.6041 13.9054L56.1754 71.4859C55.8717 72.6178 54.8435 73.4083 53.6746 73.4083C53.4495 73.4083 53.2228 73.3782 53.0007 73.3186L43.9629 70.8969C46.4527 70.5186 48.3669 68.3877 48.3669 65.792V45.2448L49.6944 45.6005L51.0365 40.5934L48.5326 39.9226L48.3669 40.5421V19.9454C49.1749 20.162 50.1076 20.412 51.0119 20.6543L54.077 30.6752L56.2227 31.2503L56.0196 21.996C57.4287 22.3738 58.8676 22.7592 59.8104 23.0119L61.4765 25.9499L62.9071 26.3331L62.6611 22.2424L64.9195 18.8227L63.4888 18.4394L60.5774 20.1508C59.634 19.8983 58.1957 19.5128 56.7859 19.135L61.5892 11.2225L59.4435 10.6475L51.7787 17.7934C50.2714 17.3896 48.6269 16.9487 47.736 16.7102C46.8629 15.0783 45.1626 13.9558 43.1833 13.9558H34.0246L36.5544 4.51445C36.8581 3.38264 37.8864 2.59213 39.0552 2.59197C39.2803 2.59197 39.507 2.6221 39.7291 2.68171L69.7709 10.7316C70.4398 10.9107 70.9984 11.3397 71.3446 11.9392C71.6909 12.5385 71.7831 13.2369 71.6041 13.9054Z" fill="url(#paint4_linear)"/>
<path d="M55.3687 35.0879L54.7057 37.5934L57.1686 38.2451L57.8316 35.7396L55.3687 35.0879Z" fill="#1D1D1D"/>
<path d="M55.3687 35.0879L54.7057 37.5934L57.1686 38.2451L57.8316 35.7396L55.3687 35.0879Z" fill="url(#paint5_linear)"/>
<path d="M60.2882 36.3946L59.6252 38.8999L62.0882 39.5516L62.7511 37.0463L60.2882 36.3946Z" fill="#1D1D1D"/>
<path d="M60.2882 36.3946L59.6252 38.8999L62.0882 39.5516L62.7511 37.0463L60.2882 36.3946Z" fill="url(#paint6_linear)"/>
<path d="M50.4499 33.7841L49.787 36.2894L52.2499 36.9411L52.9129 34.4358L50.4499 33.7841Z" fill="#1D1D1D"/>
<path d="M50.4499 33.7841L49.787 36.2894L52.2499 36.9411L52.9129 34.4358L50.4499 33.7841Z" fill="url(#paint7_linear)"/>
<defs>
<linearGradient id="paint0_linear" x1="40.7794" y1="22.3452" x2="21.4031" y2="56.7848" gradientUnits="userSpaceOnUse">
<stop offset="0.102083" stop-color="#FBBC05"/>
<stop offset="0.482292" stop-color="#FF9D2B"/>
<stop offset="0.857292" stop-color="#FBBC05"/>
</linearGradient>
<linearGradient id="paint1_linear" x1="38.1566" y1="60.6592" x2="37.9446" y2="64.4257" gradientUnits="userSpaceOnUse">
<stop offset="0.102083" stop-color="#FBBC05"/>
<stop offset="0.482292" stop-color="#FF9D2B"/>
<stop offset="0.857292" stop-color="#FBBC05"/>
</linearGradient>
<linearGradient id="paint2_linear" x1="56.1009" y1="41.9222" x2="59.2278" y2="43.7801" gradientUnits="userSpaceOnUse">
<stop offset="0.102083" stop-color="#FBBC05"/>
<stop offset="0.482292" stop-color="#FF9D2B"/>
<stop offset="0.857292" stop-color="#FBBC05"/>
</linearGradient>
<linearGradient id="paint3_linear" x1="53.4372" y1="51.8547" x2="56.9852" y2="53.1177" gradientUnits="userSpaceOnUse">
<stop offset="0.102083" stop-color="#FBBC05"/>
<stop offset="0.482292" stop-color="#FF9D2B"/>
<stop offset="0.857292" stop-color="#FBBC05"/>
</linearGradient>
<linearGradient id="paint4_linear" x1="74.7236" y1="1.5" x2="26.2654" y2="83.7436" gradientUnits="userSpaceOnUse">
<stop offset="0.102083" stop-color="#FBBC05"/>
<stop offset="0.482292" stop-color="#FF9D2B"/>
<stop offset="0.857292" stop-color="#FBBC05"/>
</linearGradient>
<linearGradient id="paint5_linear" x1="55.4213" y1="35.0856" x2="57.7684" y2="37.3338" gradientUnits="userSpaceOnUse">
<stop offset="0.102083" stop-color="#FBBC05"/>
<stop offset="0.482292" stop-color="#FF9D2B"/>
<stop offset="0.857292" stop-color="#FBBC05"/>
</linearGradient>
<linearGradient id="paint6_linear" x1="60.3408" y1="36.3923" x2="62.6879" y2="38.6405" gradientUnits="userSpaceOnUse">
<stop offset="0.102083" stop-color="#FBBC05"/>
<stop offset="0.482292" stop-color="#FF9D2B"/>
<stop offset="0.857292" stop-color="#FBBC05"/>
</linearGradient>
<linearGradient id="paint7_linear" x1="50.5025" y1="33.7818" x2="52.8496" y2="36.03" gradientUnits="userSpaceOnUse">
<stop offset="0.102083" stop-color="#FBBC05"/>
<stop offset="0.482292" stop-color="#FF9D2B"/>
<stop offset="0.857292" stop-color="#FBBC05"/>
</linearGradient>
</defs>
</svg>
