<svg width="120" height="39" viewBox="0 0 120 39" fill="none" xmlns="http://www.w3.org/2000/svg">
<g clip-path="url(#clip0)">
<path d="M32.9165 27.1224H36.3166L38.4875 14.7648H40.8627L41.2727 12.5576H33.1213L32.7107 14.7648H35.0858L32.9165 27.1224Z" fill="#1D1D1D"/>
<path d="M42.0096 15.4194L39.9392 27.1225H43.1745L44.6295 18.8958C44.7468 18.2566 45.0261 17.937 45.4697 17.937C45.6701 17.937 45.8057 18.0084 45.8776 18.1513C45.9489 18.2953 45.9846 18.5434 45.9846 18.8958L45.4697 21.7433H48.7049L49.4457 17.5677C49.4851 17.361 49.5051 17.1565 49.5051 16.9531C49.5051 15.8339 48.8914 15.2749 47.6649 15.2749C46.5648 15.2749 45.6901 15.8339 45.0401 16.9531H44.9802L45.2449 15.4194H42.0096Z" fill="#1D1D1D"/>
<path d="M53.3855 22.2777C53.486 22.125 53.6038 21.9935 53.741 21.885C53.8772 21.7776 54.0511 21.6614 54.2613 21.5381C54.4715 21.4149 54.6552 21.3053 54.8119 21.2087L54.4412 23.237C54.3542 23.7933 54.2456 24.1806 54.1138 24.4004C53.982 24.6207 53.7561 24.7303 53.4357 24.7303C53.1094 24.7303 52.9457 24.5253 52.9457 24.1157L53.1705 22.8471C53.2131 22.6207 53.285 22.4304 53.3855 22.2777ZM57.0028 27.1224L58.5394 18.4665C58.5793 18.2396 58.5993 18.0285 58.5993 17.8316C58.5993 17.2361 58.4432 16.7474 58.1309 16.3656C57.8197 15.9844 57.4047 15.7073 56.8877 15.5344C56.3706 15.3616 55.8001 15.2743 55.1766 15.2743C54.083 15.2743 53.1132 15.5334 52.2665 16.0509C51.4215 16.5691 50.9034 17.3741 50.7132 18.4665L50.5084 19.5496H53.7453L53.9706 18.2614C54.0673 17.6888 54.3472 17.4024 54.8113 17.4024C55.0145 17.4024 55.1506 17.464 55.2193 17.5873C55.2873 17.7106 55.3214 17.9353 55.3214 18.2614C55.2414 18.7343 55.001 19.1024 54.6006 19.3653C54.2008 19.6282 53.58 19.9489 52.7398 20.3268C51.8997 20.7048 51.2427 21.0942 50.771 21.4961C50.2982 21.8965 49.9995 22.4419 49.8725 23.1312L49.5624 24.8699C49.5229 25.0767 49.5029 25.2746 49.5029 25.4644C49.5029 26.0442 49.672 26.4892 50.0103 26.8006C50.3485 27.1121 50.8218 27.2675 51.4285 27.2675C52.4794 27.2675 53.3271 26.7625 53.9706 25.754H54.0106L53.7653 27.123H57.0028V27.1224Z" fill="#1D1D1D"/>
<path d="M58.8262 27.1224H62.0615L63.7612 17.5469H64.6867L65.052 15.4194H64.1319C64.1751 15.1598 64.2669 14.9727 64.4069 14.8576C64.5468 14.7425 64.8035 14.6853 65.1768 14.6853L65.5674 12.5582H63.497C62.813 12.5582 62.2533 12.7775 61.8172 13.2176C61.3801 13.6567 61.1154 14.1399 61.0214 14.6656L60.8971 15.4199H60.1818L59.8117 17.5475H60.5265L58.8262 27.1224Z" fill="#1D1D1D"/>
<path d="M64.6443 27.1224H67.8796L69.5799 17.5469H70.5049L70.8701 15.4194H69.95C69.9932 15.1598 70.0851 14.9727 70.2255 14.8576C70.3655 14.7425 70.6221 14.6853 70.9955 14.6853L71.3855 12.5582H69.3151C68.6317 12.5582 68.0719 12.7775 67.6354 13.2176C67.1983 13.6567 66.9335 14.1399 66.84 14.6656L66.7152 15.4199H65.9999L65.6303 17.5475H66.3446L64.6443 27.1224Z" fill="#1D1D1D"/>
<path d="M75.3782 15.4193H72.1462L70.0774 27.1224H73.3154L75.3782 15.4193ZM75.8931 12.5576H72.6605L72.2904 14.6252H75.523L75.8931 12.5576Z" fill="#1D1D1D"/>
<path d="M83.9006 19.5502L84.0859 18.5712C84.1259 18.3051 84.1459 18.0591 84.1459 17.8322C84.1459 17.2132 83.9968 16.7136 83.698 16.334C83.3998 15.9544 82.9935 15.6833 82.4796 15.5197C81.9658 15.3567 81.3807 15.2754 80.7237 15.2754C79.5161 15.2754 78.5106 15.577 77.7088 16.1791C76.907 16.7818 76.4219 17.5731 76.2554 18.5521L75.2948 24.0115C75.2413 24.3709 75.2148 24.6245 75.2148 24.7712C75.2148 26.4363 76.3478 27.2686 78.6128 27.2686C79.8338 27.2686 80.8382 27.0226 81.6271 26.5312C82.4159 26.0398 82.9 25.2692 83.0805 24.2166L83.3906 22.4986H80.1531L79.823 24.3213C79.7198 24.8678 79.4464 25.1405 79.0023 25.1405C78.8056 25.1405 78.6684 25.0777 78.5895 24.9507C78.5106 24.8236 78.4717 24.6142 78.4717 24.3213L79.5577 18.2227C79.6345 17.6768 79.9078 17.4035 80.3784 17.4035C80.7318 17.4035 80.9085 17.6768 80.9085 18.2227L80.6637 19.5513H83.9006V19.5502Z" fill="#1D1D1D"/>
<path d="M88.617 20.1648H90.4168L89.1914 27.123H92.5904L95.1692 12.5582H91.7702L90.8058 17.9571H89.0066L89.9662 12.5582H86.5666L83.9878 27.123H87.3868L88.617 20.1648Z" fill="#BF2325"/>
<path d="M101.828 27.1225L103.899 15.4194H100.663L99.2279 23.5414C99.0848 24.251 98.7914 24.605 98.3478 24.605C97.9912 24.605 97.8129 24.4152 97.8129 24.0356C97.8129 23.8692 97.8329 23.7045 97.8723 23.5414L99.3074 15.4194H96.0721L94.4523 24.5853C94.3982 24.8384 94.3723 25.1116 94.3723 25.4045C94.3723 26.6464 94.9726 27.2676 96.1726 27.2676C97.4261 27.2676 98.3078 26.7342 98.8179 25.6685H98.8578L98.5931 27.1225H101.828Z" fill="#BF2325"/>
<path d="M105.31 15.4194L103.24 27.1224H106.475L107.91 19.0004C108.028 18.2914 108.321 17.9369 108.79 17.9369C109.134 17.9369 109.305 18.1289 109.305 18.5112C109.305 18.6176 109.293 18.7806 109.266 19.0004L107.83 27.1224H111.066L112.687 17.9565C112.739 17.5769 112.766 17.3102 112.766 17.157C112.766 16.5549 112.616 16.0902 112.314 15.7635C112.012 15.4374 111.562 15.2743 110.966 15.2743C109.713 15.2743 108.83 15.8077 108.321 16.8728H108.281L108.546 15.4194H105.31Z" fill="#BF2325"/>
<path d="M113.709 24.6899C113.642 25.0733 113.609 25.3864 113.609 25.6296C113.619 26.1254 113.755 26.4984 114.018 26.7482C114.282 26.998 114.704 27.1234 115.284 27.1234H117.929L118.3 24.9953H117.664C117.414 24.9953 117.242 24.9571 117.149 24.8781C117.055 24.7995 117.009 24.6757 117.009 24.5061C117.009 24.4232 117.036 24.2312 117.089 23.9313L118.214 17.548H119.629L119.999 15.4204H118.584L118.955 13.313H115.714L115.349 15.4204H114.264L113.894 17.548H114.979L113.709 24.6899Z" fill="#BF2325"/>
<path fill-rule="evenodd" clip-rule="evenodd" d="M11.8292 7.80505C5.28897 7.80505 -0.0129395 13.043 -0.0129395 19.5054C-0.0129395 25.9667 5.28897 31.2046 11.8292 31.2046C18.369 31.2046 23.6714 25.9667 23.6714 19.5054C23.6714 13.0425 18.369 7.80505 11.8292 7.80505ZM12.061 28.452C6.41873 28.452 1.84459 23.9323 1.84459 18.3579C1.84459 12.7829 6.41873 8.26318 12.061 8.26318C17.7033 8.26318 22.2775 12.7829 22.2775 18.3579C22.2775 23.9323 17.7039 28.452 12.061 28.452Z" fill="url(#paint0_linear)"/>
<path fill-rule="evenodd" clip-rule="evenodd" d="M12.1512 14.3199C12.1269 14.3389 12.5932 14.1377 12.5391 14.262C12.2258 14.9852 11.2219 17.4848 10.687 18.4179C10.0603 19.5131 8.1552 22.3213 8.1552 22.3213L6.33603 25.5424C6.03778 25.327 5.76277 25.1028 5.50991 24.8721C6.23067 23.3183 6.82175 21.9854 6.82175 21.9854L6.49865 22.0339C6.49865 22.0339 7.69325 17.956 9.59995 14.5113C11.4688 11.1348 12.9346 8.86155 12.9346 8.86155L13.0686 9.28642L18.1836 0C18.1836 0 15.1099 8.45033 14.2832 10.3985C13.4566 12.3466 12.3165 14.1917 12.1512 14.3199ZM8.47559 13.3376L7.05516 16.4671C7.05246 16.4682 4.8675 20.8706 4.39313 21.4907C4.34774 21.549 4.30452 21.2104 4.30452 21.2104L3.59997 22.5008C3.36873 22.1032 3.19259 21.7399 3.06508 21.4443L4.17106 18.305L4.29533 18.6683C4.29533 18.6683 4.41366 17.1603 5.03229 15.8235C5.91135 13.925 6.75908 12.9575 6.75908 12.9575L6.76448 13.402L11.9302 4.4335C11.719 6.28675 8.22652 13.4374 8.22652 13.4374L8.47559 13.3376ZM1.0433 27.1824L1.32803 26.3741C1.35397 26.421 1.3799 26.469 1.40638 26.5176L1.0433 27.1824ZM4.03059 29.6241L0.448975 35.9671C0.448975 35.9671 2.19413 31.9492 3.47138 29.1676C3.6486 29.3269 3.83554 29.4791 4.03059 29.6241ZM8.63984 31.4943L4.49686 39C4.49686 39 5.967 34.2682 7.00653 31.0673C7.55925 31.2478 8.10495 31.3885 8.63984 31.4943ZM12.5759 31.743L10.9253 34.7656L12.121 31.7659C12.2755 31.7604 12.4268 31.7534 12.5759 31.743ZM16.4352 25.3215L16.2007 25.1023L15.0105 27.2828C14.615 27.3384 14.2324 27.3766 13.8602 27.4033L14.8484 24.9234L14.6166 24.9932C14.6166 24.9932 15.8036 22.5771 16.5708 20.7871C17.1835 19.3566 18.7509 17.1046 18.8876 16.9176C18.9168 16.8777 18.9643 17.1215 18.9643 17.1215L22.2769 11.0562C22.2769 11.0562 20.6344 17.3495 19.8936 19.2071C19.8499 19.3162 19.7748 18.9524 19.7348 19.0408C19.1945 20.2145 18.9108 21.0042 17.9588 22.7075C17.2332 24.0082 16.3077 25.4322 16.4352 25.3215ZM9.09315 25.2255L9.74258 25.4257C9.74258 25.4257 10.8729 21.7656 11.9248 19.7454C12.9768 17.7253 13.8748 16.4791 13.8748 16.4791L13.9677 17.0594L23.2062 1.40003L16.6724 15.6212L17.4288 15.3806C17.4288 15.3806 13.2896 24.2716 12.296 25.9356C12.0026 26.426 11.6995 26.9206 11.4137 27.3842C10.3185 27.2768 9.35573 27.0401 8.50963 26.7139C8.88135 25.7197 9.09315 25.2255 9.09315 25.2255Z" fill="#BF2325"/>
</g>
<defs>
<linearGradient id="paint0_linear" x1="11.829" y1="31.2045" x2="11.829" y2="7.80478" gradientUnits="userSpaceOnUse">
<stop stop-color="#C0BFC1"/>
<stop offset="1" stop-color="#1D1D1D"/>
</linearGradient>
<clipPath id="clip0">
<rect width="120" height="39" fill="white"/>
</clipPath>
</defs>
</svg>
