<svg width="113" height="14" viewBox="0 0 113 14" fill="none" xmlns="http://www.w3.org/2000/svg"><path d="M40.411 12.525h2.257v-6.49l5.032 6.49h1.946V2.317H47.39v6.285l-4.87-6.285h-2.11l.001 10.208zm-4.43 0h2.287V2.317h-2.287v10.208zm-7.28-5.06v-3.12h1.767c1.142 0 1.856.54 1.856 1.545v.03c0 .871-.666 1.545-1.811 1.545H28.7zm-2.284 5.06h2.286V9.463h1.738c2.33 0 4.2-1.225 4.2-3.587v-.03c0-2.084-1.499-3.53-3.978-3.53h-4.246v10.21zm-5.35.146c2.24 0 3.815-1.137 3.815-3.161v-.03c0-1.78-1.188-2.523-3.296-3.062-1.797-.453-2.242-.671-2.242-1.343v-.028c0-.496.46-.89 1.332-.89.872 0 1.776.38 2.702 1.007l1.188-1.692c-1.054-.831-2.346-1.298-3.86-1.298-2.123 0-3.637 1.224-3.637 3.077v.03c.002 2.024 1.356 2.593 3.446 3.114 1.737.436 2.094.73 2.094 1.298v.03c0 .598-.564.962-1.5.962-1.188 0-2.168-.48-3.108-1.24l-1.35 1.59a6.685 6.685 0 004.414 1.636h.002z" fill="#FABC05"/><path d="M104.576 7.523V3.38h3.207c1.677 0 2.658.763 2.658 2.015v.028c0 1.308-1.11 2.101-2.672 2.101l-3.193-.001zm-1.173 5.001h1.173V8.56h2.969l3.014 3.966h1.443l-3.195-4.17c1.634-.287 2.821-1.283 2.821-2.976v-.028a2.78 2.78 0 00-.802-2.013c-.653-.642-1.678-1.021-2.954-1.021h-4.469v10.207zm-9.493 0h7.587v-1.05h-6.413V7.902h5.67v-1.05h-5.67V3.363h6.339V2.317H93.91v10.207zm-9.492 0h7.587v-1.05H85.59V7.902h5.671v-1.05h-5.67V3.363h6.338V2.317h-7.512v10.207zm-9.106-5.001V3.38h3.207c1.677 0 2.657.763 2.657 2.013v.028c0 1.308-1.11 2.1-2.673 2.1l-3.191.002zm-1.173 5.001h1.173V8.56h2.969l3.013 3.966h1.444l-3.195-4.17c1.633-.287 2.816-1.283 2.816-2.976v-.028c.008-.37-.059-.74-.197-1.085a2.813 2.813 0 00-.604-.928c-.654-.642-1.679-1.021-2.955-1.021h-4.464v10.207zm-9.27-3.732l2.376-5.206 2.36 5.206h-4.736zm-2.896 3.733h1.204l1.232-2.697h5.66l1.221 2.697h1.262l-4.744-10.28h-1.1l-4.735 10.28zm-4.86.176c1.887 0 3.073-.716 4.158-1.794l-.777-.743c-1 .933-1.93 1.472-3.356 1.472-2.286 0-4.023-1.854-4.023-4.214v-.03c0-2.347 1.722-4.186 4.023-4.186 1.411 0 2.391.584 3.267 1.4l.801-.845c-1.039-.962-2.167-1.619-4.052-1.619-3.06 0-5.256 2.392-5.256 5.28v.029c.005 2.93 2.217 5.25 5.215 5.25z" fill="#fff"/><path fill-rule="evenodd" clip-rule="evenodd" d="M2.109 0h6.458v4.226H4.279v4.162H0V2.072A2.06 2.06 0 01.62.609C1.015.22 1.55.002 2.109 0" fill="#F8F8F8"/><path fill-rule="evenodd" clip-rule="evenodd" d="M4.697 13.315H2.109c-.53 0-1.04-.197-1.428-.55V9.37l4.016 3.945zm8.085-.472a2.13 2.13 0 01-1.332.472H9.148L4.985 9.172V5.183l7.797 7.66zm.777-7.614v4.025l-4.312-4.27V.997l4.312 4.232z" fill="#FABC05"/><path d="M39.89 12.26h2.257V5.77l5.034 6.49h1.945V2.053h-2.257v6.286L42 2.052h-2.108v10.209zm-4.429 0h2.287V2.053H35.46v10.209zm-7.28-5.064V4.079h1.767c1.143 0 1.856.545 1.856 1.546v.028c0 .872-.666 1.546-1.812 1.546l-1.811-.003zm-2.287 5.061h2.287v-3.06h1.737c2.33 0 4.201-1.225 4.201-3.587v-.03c0-2.085-1.5-3.529-3.978-3.529h-4.247v10.205zm-5.35.145c2.242 0 3.815-1.137 3.815-3.162v-.03c0-1.778-1.188-2.522-3.295-3.062-1.796-.451-2.242-.67-2.242-1.34v-.03c0-.496.46-.89 1.331-.89.872 0 1.776.38 2.703 1.006l1.188-1.692a6.09 6.09 0 00-3.86-1.297c-2.124 0-3.638 1.225-3.638 3.077v.033c0 2.027 1.35 2.596 3.44 3.12 1.738.437 2.094.73 2.094 1.3v.029c0 .597-.563.961-1.5.961-1.187 0-2.167-.48-3.107-1.24l-1.339 1.587a6.685 6.685 0 004.41 1.633v-.003z" fill="#F8F8F8"/><path d="M104.056 7.258V3.115h3.206c1.679 0 2.658.763 2.658 2.013v.03c0 1.308-1.11 2.1-2.672 2.1h-3.192zm-1.174 5.003h1.174V8.293h2.969l3.013 3.968h1.443l-3.194-4.172c1.633-.291 2.82-1.283 2.82-2.974v-.03a2.78 2.78 0 00-.801-2.012c-.653-.643-1.677-1.021-2.955-1.021h-4.469v10.209zm-9.492 0h7.587v-1.05h-6.408V7.637h5.661v-1.05h-5.661v-3.49h6.339V2.053H93.39v10.209zm-9.493 0h7.587v-1.05h-6.413V7.637h5.67v-1.05h-5.67v-3.49h6.339V2.053h-7.513v10.209zm-9.101-5.003V3.115h3.206c1.679 0 2.658.763 2.658 2.013v.03c0 1.308-1.11 2.1-2.672 2.1h-3.192zm-1.174 5.003h1.174V8.293h2.969l3.013 3.968h1.443l-3.199-4.172c1.633-.291 2.82-1.283 2.82-2.974v-.03c.009-.37-.058-.74-.196-1.085a2.811 2.811 0 00-.605-.927c-.652-.643-1.677-1.021-2.954-1.021h-4.469l.005 10.209zM64.35 8.526l2.375-5.206 2.361 5.206H64.35zm-2.895 3.735h1.202l1.232-2.699h5.661l1.22 2.699h1.263L67.296 1.979h-1.1l-4.742 10.282zm-4.86.174c1.886 0 3.072-.714 4.156-1.794l-.777-.743c-.999.933-1.929 1.473-3.355 1.473-2.286 0-4.023-1.854-4.023-4.215v-.03c.005-2.347 1.726-4.182 4.027-4.182 1.411 0 2.391.583 3.267 1.4l.801-.846c-1.039-.963-2.166-1.62-4.052-1.62-3.06 0-5.256 2.393-5.256 5.28v.03c0 2.928 2.212 5.247 5.211 5.247z" fill="#FABC05"/></svg>