<svg width="76" height="76" viewBox="0 0 76 76" fill="none" xmlns="http://www.w3.org/2000/svg"><path d="M25.04 21.731c-8.588 0-15.55 6.963-15.55 15.551 0 8.589 6.962 15.551 15.55 15.551 8.59 0 15.552-6.962 15.552-15.55 0-8.59-6.963-15.552-15.551-15.552zm11.51 9.72h-5.605c-.536-2.686-1.373-4.857-2.228-6.532a12.934 12.934 0 017.833 6.532zm-7.622 5.831c0 1.157-.086 2.22-.205 3.24h-7.364a27.455 27.455 0 01-.206-3.24c0-1.157.085-2.22.204-3.24h7.368c.118 1.02.203 2.083.203 3.24zm-4.264-12.921c.127-.004.248-.038.377-.038.13 0 .25.035.38.039.973 1.492 2.156 3.852 2.872 7.089h-6.504c.72-3.248 1.906-5.607 2.875-7.09zm-3.3.558c-.851 1.671-1.69 3.845-2.226 6.532h-5.606a12.937 12.937 0 017.832-6.532zm-9.282 12.363c0-1.125.189-2.198.46-3.24h6.203a30.58 30.58 0 00-.184 3.24c0 1.147.078 2.213.188 3.24h-6.207c-.271-1.042-.46-2.115-.46-3.24zm1.45 5.832h5.613c.541 2.692 1.38 4.88 2.216 6.53a12.935 12.935 0 01-7.829-6.53zm11.885 7.09c-.128.003-.247.037-.376.037-.13 0-.249-.034-.377-.038-.93-1.428-2.14-3.794-2.872-7.09h6.498c-.732 3.294-1.94 5.658-2.873 7.09zm3.305-.56c.837-1.65 1.675-3.838 2.215-6.53h5.613a12.938 12.938 0 01-7.828 6.53zm2.612-9.122a30.21 30.21 0 00.186-3.24c0-1.146-.074-2.213-.183-3.24h6.203c.27 1.042.46 2.115.46 3.24s-.19 2.198-.46 3.24h-6.206z" fill="#1D1D1D"/><path d="M25.04 21.731c-8.588 0-15.55 6.963-15.55 15.551 0 8.589 6.962 15.551 15.55 15.551 8.59 0 15.552-6.962 15.552-15.55 0-8.59-6.963-15.552-15.551-15.552zm11.51 9.72h-5.605c-.536-2.686-1.373-4.857-2.228-6.532a12.934 12.934 0 017.833 6.532zm-7.622 5.831c0 1.157-.086 2.22-.205 3.24h-7.364a27.455 27.455 0 01-.206-3.24c0-1.157.085-2.22.204-3.24h7.368c.118 1.02.203 2.083.203 3.24zm-4.264-12.921c.127-.004.248-.038.377-.038.13 0 .25.035.38.039.973 1.492 2.156 3.852 2.872 7.089h-6.504c.72-3.248 1.906-5.607 2.875-7.09zm-3.3.558c-.851 1.671-1.69 3.845-2.226 6.532h-5.606a12.937 12.937 0 017.832-6.532zm-9.282 12.363c0-1.125.189-2.198.46-3.24h6.203a30.58 30.58 0 00-.184 3.24c0 1.147.078 2.213.188 3.24h-6.207c-.271-1.042-.46-2.115-.46-3.24zm1.45 5.832h5.613c.541 2.692 1.38 4.88 2.216 6.53a12.935 12.935 0 01-7.829-6.53zm11.885 7.09c-.128.003-.247.037-.376.037-.13 0-.249-.034-.377-.038-.93-1.428-2.14-3.794-2.872-7.09h6.498c-.732 3.294-1.94 5.658-2.873 7.09zm3.305-.56c.837-1.65 1.675-3.838 2.215-6.53h5.613a12.938 12.938 0 01-7.828 6.53zm2.612-9.122a30.21 30.21 0 00.186-3.24c0-1.146-.074-2.213-.183-3.24h6.203c.27 1.042.46 2.115.46 3.24s-.19 2.198-.46 3.24h-6.206z" fill="url(#paint0_linear)"/><path d="M38 60.608H12.082V63.2H38v-2.592z" fill="#1D1D1D"/><path d="M38 60.608H12.082V63.2H38v-2.592z" fill="url(#paint1_linear)"/><path d="M56.043 41.94l-1.342 5.006 2.504.671 1.342-5.007-2.504-.67z" fill="#1D1D1D"/><path d="M56.043 41.94l-1.342 5.006 2.504.671 1.342-5.007-2.504-.67z" fill="url(#paint2_linear)"/><path d="M53.36 51.947l-4.696 17.524 2.504.67 4.695-17.523-2.504-.67z" fill="#1D1D1D"/><path d="M53.36 51.947l-4.696 17.524 2.504.67 4.695-17.523-2.504-.67z" fill="url(#paint3_linear)"/><path d="M70.442 8.228L40.4.178a5.187 5.187 0 00-6.349 3.665l-2.709 10.113H4.306a2.592 2.592 0 00-2.592 2.591v51.837a2.592 2.592 0 002.592 2.591h29.936l18.088 4.847a5.186 5.186 0 006.349-3.665l15.428-57.58a5.184 5.184 0 00-3.665-6.35zM4.306 68.384V16.547h38.877a2.595 2.595 0 012.592 2.592v46.653a2.595 2.595 0 01-2.592 2.592H4.306zm67.298-54.479l-15.429 57.58a2.595 2.595 0 01-3.174 1.834l-9.038-2.422c2.49-.378 4.404-2.51 4.404-5.105V45.245l1.327.355 1.342-5.007-2.503-.67-.166.62V19.944l2.645.71 3.065 10.02 2.146.575-.203-9.254 3.79 1.016 1.666 2.938 1.431.383-.246-4.09 2.258-3.42-1.43-.384-2.912 1.712-3.791-1.016 4.803-7.913-2.145-.574-7.665 7.145-4.043-1.083c-.873-1.632-2.573-2.754-4.553-2.754h-9.158l2.53-9.442a2.595 2.595 0 013.174-1.832l30.042 8.05a2.577 2.577 0 011.574 1.207c.346.6.438 1.298.26 1.966z" fill="#1D1D1D"/><path d="M70.442 8.228L40.4.178a5.187 5.187 0 00-6.349 3.665l-2.709 10.113H4.306a2.592 2.592 0 00-2.592 2.591v51.837a2.592 2.592 0 002.592 2.591h29.936l18.088 4.847a5.186 5.186 0 006.349-3.665l15.428-57.58a5.184 5.184 0 00-3.665-6.35zM4.306 68.384V16.547h38.877a2.595 2.595 0 012.592 2.592v46.653a2.595 2.595 0 01-2.592 2.592H4.306zm67.298-54.479l-15.429 57.58a2.595 2.595 0 01-3.174 1.834l-9.038-2.422c2.49-.378 4.404-2.51 4.404-5.105V45.245l1.327.355 1.342-5.007-2.503-.67-.166.62V19.944l2.645.71 3.065 10.02 2.146.575-.203-9.254 3.79 1.016 1.666 2.938 1.431.383-.246-4.09 2.258-3.42-1.43-.384-2.912 1.712-3.791-1.016 4.803-7.913-2.145-.574-7.665 7.145-4.043-1.083c-.873-1.632-2.573-2.754-4.553-2.754h-9.158l2.53-9.442a2.595 2.595 0 013.174-1.832l30.042 8.05a2.577 2.577 0 011.574 1.207c.346.6.438 1.298.26 1.966z" fill="url(#paint4_linear)"/><path d="M55.369 35.088l-.663 2.505 2.463.652.663-2.505-2.463-.652z" fill="#1D1D1D"/><path d="M55.369 35.088l-.663 2.505 2.463.652.663-2.505-2.463-.652z" fill="url(#paint5_linear)"/><path d="M60.288 36.395l-.663 2.505 2.463.652.663-2.506-2.463-.651z" fill="#1D1D1D"/><path d="M60.288 36.395l-.663 2.505 2.463.652.663-2.506-2.463-.651z" fill="url(#paint6_linear)"/><path d="M50.45 33.784l-.663 2.505 2.463.652.663-2.505-2.463-.652z" fill="#1D1D1D"/><path d="M50.45 33.784l-.663 2.505 2.463.652.663-2.505-2.463-.652z" fill="url(#paint7_linear)"/><defs><linearGradient id="paint0_linear" x1="40.779" y1="22.345" x2="21.403" y2="56.785" gradientUnits="userSpaceOnUse"><stop offset=".102" stop-color="#FBBC05"/><stop offset=".482" stop-color="#FF9D2B"/><stop offset=".857" stop-color="#FBBC05"/></linearGradient><linearGradient id="paint1_linear" x1="38.157" y1="60.659" x2="37.945" y2="64.426" gradientUnits="userSpaceOnUse"><stop offset=".102" stop-color="#FBBC05"/><stop offset=".482" stop-color="#FF9D2B"/><stop offset=".857" stop-color="#FBBC05"/></linearGradient><linearGradient id="paint2_linear" x1="56.101" y1="41.922" x2="59.228" y2="43.78" gradientUnits="userSpaceOnUse"><stop offset=".102" stop-color="#FBBC05"/><stop offset=".482" stop-color="#FF9D2B"/><stop offset=".857" stop-color="#FBBC05"/></linearGradient><linearGradient id="paint3_linear" x1="53.437" y1="51.855" x2="56.985" y2="53.118" gradientUnits="userSpaceOnUse"><stop offset=".102" stop-color="#FBBC05"/><stop offset=".482" stop-color="#FF9D2B"/><stop offset=".857" stop-color="#FBBC05"/></linearGradient><linearGradient id="paint4_linear" x1="74.724" y1="1.5" x2="26.265" y2="83.744" gradientUnits="userSpaceOnUse"><stop offset=".102" stop-color="#FBBC05"/><stop offset=".482" stop-color="#FF9D2B"/><stop offset=".857" stop-color="#FBBC05"/></linearGradient><linearGradient id="paint5_linear" x1="55.421" y1="35.086" x2="57.768" y2="37.334" gradientUnits="userSpaceOnUse"><stop offset=".102" stop-color="#FBBC05"/><stop offset=".482" stop-color="#FF9D2B"/><stop offset=".857" stop-color="#FBBC05"/></linearGradient><linearGradient id="paint6_linear" x1="60.341" y1="36.392" x2="62.688" y2="38.641" gradientUnits="userSpaceOnUse"><stop offset=".102" stop-color="#FBBC05"/><stop offset=".482" stop-color="#FF9D2B"/><stop offset=".857" stop-color="#FBBC05"/></linearGradient><linearGradient id="paint7_linear" x1="50.502" y1="33.782" x2="52.85" y2="36.03" gradientUnits="userSpaceOnUse"><stop offset=".102" stop-color="#FBBC05"/><stop offset=".482" stop-color="#FF9D2B"/><stop offset=".857" stop-color="#FBBC05"/></linearGradient></defs></svg>