<svg width="120" height="39" viewBox="0 0 120 39" fill="none" xmlns="http://www.w3.org/2000/svg"><g clip-path="url(#clip0)"><path d="M32.916 27.122h3.4l2.171-12.357h2.376l.41-2.207H33.12l-.41 2.207h2.375l-2.17 12.357zM42.01 15.42l-2.07 11.702h3.235l1.455-8.226c.117-.64.396-.959.84-.959.2 0 .336.071.408.214.07.144.107.392.107.745l-.515 2.847h3.235l.74-4.175c.04-.207.06-.412.06-.615 0-1.12-.614-1.678-1.84-1.678-1.1 0-1.975.559-2.625 1.678h-.06l.265-1.534H42.01zm11.376 6.858c.1-.153.218-.284.355-.393.136-.107.31-.224.52-.347.21-.123.394-.233.55-.33l-.37 2.029c-.087.556-.195.944-.327 1.163-.132.22-.358.33-.678.33-.327 0-.49-.205-.49-.614l.224-1.269a1.55 1.55 0 01.215-.57zm3.617 4.844l1.536-8.655c.04-.227.06-.438.06-.635 0-.596-.156-1.085-.468-1.466-.311-.382-.726-.659-1.243-.832a5.373 5.373 0 00-1.711-.26c-1.094 0-2.064.26-2.91.777-.846.518-1.364 1.323-1.554 2.416l-.205 1.083h3.237l.226-1.289c.096-.572.376-.859.84-.859.203 0 .34.062.408.185.068.124.102.348.102.674-.08.473-.32.841-.72 1.104-.4.263-1.021.584-1.861.962-.84.378-1.497.767-1.969 1.17-.473.4-.772.945-.898 1.634l-.31 1.739c-.04.207-.06.405-.06.594 0 .58.169 1.025.507 1.337.339.311.812.466 1.419.466 1.05 0 1.898-.505 2.542-1.513h.04l-.246 1.369h3.238zm1.823 0h3.236l1.7-9.575h.925l.365-2.128h-.92c.043-.26.135-.446.275-.561.14-.116.397-.173.77-.173l.39-2.127h-2.07c-.684 0-1.244.22-1.68.66-.437.439-.702.922-.796 1.448l-.124.754h-.715l-.37 2.127h.715l-1.7 9.575zm5.818 0h3.236l1.7-9.575h.925l.365-2.128h-.92c.043-.26.135-.446.275-.561.14-.116.397-.173.77-.173l.39-2.127h-2.07c-.683 0-1.243.22-1.68.66-.437.439-.702.922-.795 1.448l-.125.754H66l-.37 2.127h.715l-1.7 9.575zM75.378 15.42h-3.232l-2.069 11.702h3.238l2.063-11.703zm.515-2.862H72.66l-.37 2.067h3.233l.37-2.067zM83.9 19.55l.186-.979c.04-.266.06-.512.06-.739 0-.619-.15-1.118-.448-1.498-.298-.38-.704-.65-1.218-.814-.514-.163-1.1-.245-1.756-.245-1.208 0-2.213.302-3.015.904-.802.603-1.287 1.394-1.454 2.373l-.96 5.46a6.01 6.01 0 00-.08.76c0 1.664 1.133 2.497 3.398 2.497 1.22 0 2.225-.246 3.014-.738.789-.491 1.273-1.262 1.454-2.314l.31-1.718h-3.238l-.33 1.822c-.103.547-.377.82-.82.82-.197 0-.335-.063-.413-.19-.08-.127-.118-.337-.118-.63l1.086-6.098c.076-.546.35-.82.82-.82.354 0 .53.274.53.82l-.244 1.328H83.9z" fill="#1D1D1D"/><path d="M88.617 20.165h1.8l-1.226 6.958h3.4l2.578-14.565H91.77l-.964 5.4h-1.8l.96-5.4h-3.4l-2.578 14.565h3.399l1.23-6.958zm13.211 6.957l2.071-11.703h-3.236l-1.435 8.122c-.143.71-.437 1.064-.88 1.064-.357 0-.535-.19-.535-.57 0-.166.02-.33.06-.494l1.434-8.122h-3.235l-1.62 9.166a3.92 3.92 0 00-.08.82c0 1.241.6 1.863 1.8 1.863 1.254 0 2.136-.534 2.646-1.6h.04l-.265 1.454h3.235zm3.482-11.702l-2.07 11.702h3.235L107.91 19c.118-.709.411-1.063.88-1.063.344 0 .515.192.515.574 0 .107-.012.27-.039.49l-1.436 8.121h3.236l1.621-9.166c.052-.38.079-.646.079-.799 0-.602-.15-1.067-.452-1.393-.302-.327-.752-.49-1.348-.49-1.253 0-2.136.534-2.645 1.599h-.04l.265-1.454h-3.236zm8.399 9.27a5.68 5.68 0 00-.1.94c.01.495.146.868.409 1.118.264.25.686.375 1.266.375h2.645l.371-2.128h-.636c-.25 0-.422-.038-.515-.117-.094-.079-.14-.202-.14-.372 0-.083.027-.275.08-.575l1.125-6.383h1.415l.37-2.128h-1.415l.371-2.107h-3.241l-.365 2.107h-1.085l-.37 2.128h1.085l-1.27 7.142z" fill="#BF2325"/><path fill-rule="evenodd" clip-rule="evenodd" d="M11.83 7.805c-6.541 0-11.843 5.238-11.843 11.7 0 6.462 5.302 11.7 11.842 11.7 6.54 0 11.842-5.238 11.842-11.7 0-6.462-5.302-11.7-11.842-11.7zm.231 20.647c-5.642 0-10.216-4.52-10.216-10.094 0-5.575 4.574-10.095 10.216-10.095 5.642 0 10.216 4.52 10.216 10.095 0 5.574-4.573 10.094-10.216 10.094z" fill="url(#paint0_linear)"/><path fill-rule="evenodd" clip-rule="evenodd" d="M12.151 14.32c-.024.019.442-.182.388-.058-.313.723-1.317 3.223-1.852 4.156-.627 1.095-2.532 3.903-2.532 3.903l-1.819 3.221a9.324 9.324 0 01-.826-.67c.72-1.554 1.312-2.887 1.312-2.887l-.323.049S7.693 17.956 9.6 14.51c1.869-3.376 3.335-5.65 3.335-5.65l.134.425L18.184 0s-3.074 8.45-3.9 10.399c-.827 1.948-1.968 3.793-2.133 3.92zm-3.675-.982l-1.42 3.13c-.004 0-2.189 4.403-2.663 5.023-.045.058-.088-.28-.088-.28L3.6 22.5a9.99 9.99 0 01-.535-1.057l1.106-3.139.124.363s.119-1.508.737-2.845c.88-1.898 1.727-2.866 1.727-2.866l.005.445 5.166-8.968c-.211 1.853-3.703 9.003-3.703 9.003l.249-.1zM1.043 27.182l.285-.808.078.144-.363.664zm2.988 2.442L.449 35.967s1.745-4.018 3.022-6.8c.178.16.365.312.56.457zm4.609 1.87L4.497 39s1.47-4.732 2.51-7.933c.552.18 1.098.322 1.633.427zm3.936.249l-1.65 3.023 1.195-3c.154-.006.306-.013.455-.023zm3.86-6.421l-.235-.22-1.19 2.18c-.396.056-.779.095-1.15.121l.987-2.48-.231.07s1.187-2.416 1.954-4.206c.612-1.43 2.18-3.682 2.317-3.87.029-.04.076.204.076.204l3.313-6.065s-1.643 6.293-2.383 8.151c-.044.11-.12-.255-.16-.166-.54 1.174-.823 1.963-1.775 3.666-.726 1.301-1.651 2.725-1.524 2.614zm-7.343-.096l.65.2s1.13-3.66 2.182-5.68c1.052-2.02 1.95-3.267 1.95-3.267l.093.58L23.206 1.4l-6.534 14.221.757-.24s-4.14 8.89-5.133 10.555c-.293.49-.596.985-.882 1.448a11.023 11.023 0 01-2.904-.67c.371-.994.583-1.488.583-1.488z" fill="#BF2325"/></g><defs><linearGradient id="paint0_linear" x1="11.829" y1="31.204" x2="11.829" y2="7.805" gradientUnits="userSpaceOnUse"><stop stop-color="#C0BFC1"/><stop offset="1" stop-color="#1D1D1D"/></linearGradient><clipPath id="clip0"><path fill="#fff" d="M0 0h120v39H0z"/></clipPath></defs></svg>